name E:\3-PhD\Data\MocapData\ElaboratedData\009\pre\dynamicElaborations\RunA2\RunA2.mot
datacolumns 37
datarows 11
range 1.575 1.58
endheader

time	    ground_force1_vx	    ground_force1_vy	    ground_force1_vz	    ground_force1_px	    ground_force1_py	    ground_force1_pz	    ground_force2_vx	    ground_force2_vy	    ground_force2_vz	    ground_force2_px	    ground_force2_py	    ground_force2_pz	    ground_force3_vx	    ground_force3_vy	    ground_force3_vz	    ground_force3_px	    ground_force3_py	    ground_force3_pz	    ground_force4_vx	    ground_force4_vy	    ground_force4_vz	    ground_force4_px	    ground_force4_py	    ground_force4_pz	    ground_torque1_x	    ground_torque1_y	    ground_torque1_z	    ground_torque2_x	    ground_torque2_y	    ground_torque2_z	    ground_torque3_x	    ground_torque3_y	    ground_torque3_z	    ground_torque4_x	    ground_torque4_y	    ground_torque4_z	
1.575	          0.00000000	          0.00000000	          0.00000000	          0.00000000	          0.00000000	          0.00000000	          0.00000000	          0.00000000	          0.00000000	          0.00000000	          0.00000000	          0.00000000	        235.23517819	        718.83901497	       -400.97772801	         -0.64635136	          0.00000000	          0.51061117	          0.00000000	          0.00000000	          0.00000000	          0.00000000	          0.00000000	          0.00000000	          0.00000000	          0.00000000	          0.00000000	          0.00000000	          0.00000000	          0.00000000	          0.00000000	          3.95062128	         -0.00000000	          0.00000000	          0.00000000	          0.00000000	
1.5755	          0.00000000	          0.00000000	          0.00000000	          0.00000000	          0.00000000	          0.00000000	          0.00000000	          0.00000000	          0.00000000	          0.00000000	          0.00000000	          0.00000000	        234.22094104	        704.21353693	       -393.76490109	         -0.64608611	          0.00000000	          0.51046881	          0.00000000	          0.00000000	          0.00000000	          0.00000000	          0.00000000	          0.00000000	          0.00000000	          0.00000000	          0.00000000	          0.00000000	          0.00000000	          0.00000000	          0.00000000	          3.94445316	         -0.00000000	          0.00000000	          0.00000000	          0.00000000	
1.576	          0.00000000	          0.00000000	          0.00000000	          0.00000000	          0.00000000	          0.00000000	          0.00000000	          0.00000000	          0.00000000	          0.00000000	          0.00000000	          0.00000000	        233.10300763	        689.65848770	       -386.56025376	         -0.64581765	          0.00000000	          0.51032666	          0.00000000	          0.00000000	          0.00000000	          0.00000000	          0.00000000	          0.00000000	          0.00000000	          0.00000000	          0.00000000	          0.00000000	          0.00000000	          0.00000000	          0.00000000	          3.93663965	         -0.00000000	          0.00000000	          0.00000000	          0.00000000	
1.5765	          0.00000000	          0.00000000	          0.00000000	          0.00000000	          0.00000000	          0.00000000	          0.00000000	          0.00000000	          0.00000000	          0.00000000	          0.00000000	          0.00000000	        231.88293740	        675.17869915	       -379.36634546	         -0.64554588	          0.00000000	          0.51018473	          0.00000000	          0.00000000	          0.00000000	          0.00000000	          0.00000000	          0.00000000	          0.00000000	          0.00000000	          0.00000000	          0.00000000	          0.00000000	          0.00000000	          0.00000000	          3.92718389	         -0.00000000	          0.00000000	          0.00000000	          0.00000000	
1.577	          0.00000000	          0.00000000	          0.00000000	          0.00000000	          0.00000000	          0.00000000	          0.00000000	          0.00000000	          0.00000000	          0.00000000	          0.00000000	          0.00000000	        230.56240095	        660.77893715	       -372.18574330	         -0.64527074	          0.00000000	          0.51004301	          0.00000000	          0.00000000	          0.00000000	          0.00000000	          0.00000000	          0.00000000	          0.00000000	          0.00000000	          0.00000000	          0.00000000	          0.00000000	          0.00000000	          0.00000000	          3.91609047	         -0.00000000	          0.00000000	          0.00000000	          0.00000000	
1.5775	          0.00000000	          0.00000000	          0.00000000	          0.00000000	          0.00000000	          0.00000000	          0.00000000	          0.00000000	          0.00000000	          0.00000000	          0.00000000	          0.00000000	        229.14317620	        646.46389582	       -365.02101906	         -0.64499214	          0.00000000	          0.50990152	          0.00000000	          0.00000000	          0.00000000	          0.00000000	          0.00000000	          0.00000000	          0.00000000	          0.00000000	          0.00000000	          0.00000000	          0.00000000	          0.00000000	          0.00000000	          3.90336515	         -0.00000000	          0.00000000	          0.00000000	          0.00000000	
1.578	          0.00000000	          0.00000000	          0.00000000	          0.00000000	          0.00000000	          0.00000000	          0.00000000	          0.00000000	          0.00000000	          0.00000000	          0.00000000	          0.00000000	        227.62714401	        632.23819314	       -357.87474669	         -0.64470999	          0.00000000	          0.50976024	          0.00000000	          0.00000000	          0.00000000	          0.00000000	          0.00000000	          0.00000000	          0.00000000	          0.00000000	          0.00000000	          0.00000000	          0.00000000	          0.00000000	          0.00000000	          3.88901468	         -0.00000000	          0.00000000	          0.00000000	          0.00000000	
1.5785	          0.00000000	          0.00000000	          0.00000000	          0.00000000	          0.00000000	          0.00000000	          0.00000000	          0.00000000	          0.00000000	          0.00000000	          0.00000000	          0.00000000	        226.01628503	        618.10636588	       -350.74949997	         -0.64442422	          0.00000000	          0.50961917	          0.00000000	          0.00000000	          0.00000000	          0.00000000	          0.00000000	          0.00000000	          0.00000000	          0.00000000	          0.00000000	          0.00000000	          0.00000000	          0.00000000	          0.00000000	          3.87304676	         -0.00000000	          0.00000000	          0.00000000	          0.00000000	
1.579	          0.00000000	          0.00000000	          0.00000000	          0.00000000	          0.00000000	          0.00000000	          0.00000000	          0.00000000	          0.00000000	          0.00000000	          0.00000000	          0.00000000	        224.31267748	        604.07286448	       -343.64784920	         -0.64413474	          0.00000000	          0.50947832	          0.00000000	          0.00000000	          0.00000000	          0.00000000	          0.00000000	          0.00000000	          0.00000000	          0.00000000	          0.00000000	          0.00000000	          0.00000000	          0.00000000	          0.00000000	          3.85547018	         -0.00000000	          0.00000000	          0.00000000	          0.00000000	
1.5795	          0.00000000	          0.00000000	          0.00000000	          0.00000000	          0.00000000	          0.00000000	          0.00000000	          0.00000000	          0.00000000	          0.00000000	          0.00000000	          0.00000000	        222.51849373	        590.14204958	       -336.57235731	         -0.64384146	          0.00000000	          0.50933767	          0.00000000	          0.00000000	          0.00000000	          0.00000000	          0.00000000	          0.00000000	          0.00000000	          0.00000000	          0.00000000	          0.00000000	          0.00000000	          0.00000000	          0.00000000	          3.83629483	         -0.00000000	          0.00000000	          0.00000000	          0.00000000	
1.58	          0.00000000	          0.00000000	          0.00000000	          0.00000000	          0.00000000	          0.00000000	          0.00000000	          0.00000000	          0.00000000	          0.00000000	          0.00000000	          0.00000000	        220.63599491	        576.31819000	       -329.52557642	         -0.64354428	          0.00000000	          0.50919722	          0.00000000	          0.00000000	          0.00000000	          0.00000000	          0.00000000	          0.00000000	          0.00000000	          0.00000000	          0.00000000	          0.00000000	          0.00000000	          0.00000000	          0.00000000	          3.81553165	         -0.00000000	          0.00000000	          0.00000000	          0.00000000	
